{"title":"Fist.2.Fist.2011.DvDRip.XviD.Ac3.Feel-Free","uid":6889009,"size":1177667308,"categoryP":"video","categoryS":"movies","magnet":"?xt=urn:btih:ab212091776568d567ff98fd01c5946ecc13859a&amp;dn=Fist.2.Fist.2011.DvDRip.XviD.Ac3.Feel-Free&amp;tr=udp%3A%2F%2Ftracker.openbittorrent.com%3A80&amp;tr=udp%3A%2F%2Fopen.demonii.com%3A1337&amp;tr=udp%3A%2F%2Ftracker.coppersurfer.tk%3A6969&amp;tr=udp%3A%2F%2Fexodus.desync.com%3A6969","seeders":1,"leechers":0,"uploader":".BONE.","files":8,"time":1323935290,"description":"Genre:Action\nLanguage:English\n &lt;a href=&quot;\nhttp://www.imdb.com/title/tt1455619/&quot; rel=&quot;nofollow&quot; target=&quot;_NEW&quot;&gt;\nhttp://www.imdb.com/title/tt1455619/&lt;/a&gt;\n\nSource:DVD Thanks!\n\nFormat : AVI\nFormat/Info : Audio Video Interleave\nFile size : 1.10 GiB\nDuration : 1h 32mn\nOverall bit rate : 1 693 Kbps\n\n\nVideo\nID : 0\nFormat : MPEG-4 Visual\nFormat profile : Advanced Simple@L5\nFormat settings, BVOP : Yes\nFormat settings, QPel : No\nFormat settings, GMC : No warppoints\nFormat settings, Matrix : Default (H.263)\nCodec ID : XVID\nCodec ID/Hint : XviD\nDuration : 1h 32mn\nBit rate : 1 236 Kbps\nWidth : 640 pixels\nHeight : 360 pixels\nDisplay aspect ratio : 16:9\nFrame rate : 23.976 fps\nColor space : YUV\nChroma subsampling : 4:2:0\nBit depth : 8 bits\nScan type : Progressive\nBits/(Pixel*Frame) : 0.224\nStream size : 819 MiB (73%)\nWriting library : XviD 1.2.1 (UTC 2008-12-04)\n\nAudio\nID : 1\nFormat : AC-3\nFormat/Info : Audio Coding 3\nMode extension : CM (complete main)\nCodec ID : 2000\nDuration : 1h 32mn\nBit rate mode : Constant\nBit rate : 448 Kbps\nChannel(s) : 6 channels\nChannel positions : Front: L C R, Side: L R, LFE\nSampling rate : 48.0 KHz\nBit depth : 16 bits\nStream size : 297 MiB (26%)\nAlignment : Aligned on interleaves\nInterleave, duration : 42 ms (1.00 video frame)\nInterleave, preload duration : 512 ms\n\n\n\nPlot:\nYears ago, Ken Min failed to stop his friend from killing a young couple, leaving their infant son orphaned..","torrent":{"xt":"urn:btih:ab212091776568d567ff98fd01c5946ecc13859a","amp;dn":"Fist.2.Fist.2011.DvDRip.XviD.Ac3.Feel-Free","amp;tr":["udp%3A%2F%2Ftracker.openbittorrent.com%3A80","udp%3A%2F%2Fopen.demonii.com%3A1337","udp%3A%2F%2Ftracker.coppersurfer.tk%3A6969","udp%3A%2F%2Fexodus.desync.com%3A6969"],"infoHash":"ab212091776568d567ff98fd01c5946ecc13859a","infoHashBuffer":{"type":"Buffer","data":[171,33,32,145,119,101,104,213,103,255,152,253,1,197,148,110,204,19,133,154]},"announce":[],"urlList":[]}}